<svg id="svg" version="1.1" xmlns="http://www.w3.org/2000/svg" xmlns:xlink="http://www.w3.org/1999/xlink" width="400" height="400" viewBox="0, 0, 400,400"><g id="svgg"><path id="path0" d="M0.000 138.400 C 0.000 219.450,0.148 276.800,0.358 276.800 C 0.554 276.800,5.682 277.706,11.753 278.813 C 23.311 280.921,25.200 280.959,25.200 279.084 C 25.200 278.811,25.740 277.481,26.400 276.128 C 27.888 273.078,27.989 273.307,23.224 268.882 C 14.391 260.678,15.245 258.424,26.000 261.558 C 33.156 263.642,36.862 263.926,39.943 262.627 C 41.341 262.037,42.900 261.608,43.408 261.675 C 43.915 261.741,45.492 261.175,46.912 260.416 C 49.395 259.090,49.556 259.057,51.117 259.573 C 53.804 260.460,55.069 259.089,53.156 257.362 C 52.692 256.943,51.955 255.841,51.518 254.913 C 50.481 252.708,47.727 249.600,46.811 249.600 C 46.267 249.600,46.027 249.172,45.829 247.852 C 45.685 246.891,45.005 245.226,44.319 244.152 C 33.611 227.397,29.280 212.885,30.783 198.800 C 32.063 186.813,32.063 186.756,30.908 185.078 C 27.920 180.736,32.443 178.412,50.600 174.959 C 69.853 171.297,90.940 172.867,112.719 179.583 C 119.232 181.592,119.865 181.375,117.946 177.795 C 117.476 176.918,115.747 172.691,114.102 168.401 C 101.434 135.348,100.244 116.908,109.004 89.400 C 110.195 85.660,111.367 81.700,111.608 80.600 C 111.849 79.500,112.576 77.774,113.223 76.765 C 113.871 75.756,114.400 74.473,114.400 73.914 C 114.400 70.862,120.418 70.491,132.000 72.830 C 137.179 73.875,140.847 75.321,149.379 79.683 C 152.609 81.335,164.620 88.640,166.600 90.159 C 177.698 98.668,193.070 113.426,200.000 122.226 C 203.082 126.139,206.038 129.723,208.226 132.200 C 211.376 135.765,215.580 141.544,221.467 150.400 C 224.026 154.250,226.678 158.109,227.360 158.976 C 228.042 159.843,229.782 162.802,231.227 165.552 C 235.518 173.720,235.741 172.719,232.771 158.600 C 231.660 153.320,230.503 147.650,230.199 146.000 C 229.895 144.350,229.190 140.840,228.633 138.200 C 226.479 127.996,224.416 115.222,223.820 108.400 C 223.695 106.970,223.236 102.020,222.800 97.400 C 221.139 79.798,221.002 64.350,222.415 54.000 C 222.794 51.227,222.991 50.290,224.013 46.400 C 224.215 45.630,224.385 41.143,224.390 36.428 C 224.400 28.163,224.752 25.200,225.726 25.200 C 226.171 25.200,225.739 29.349,225.133 30.899 C 222.918 36.571,230.916 62.223,239.195 76.000 C 240.451 78.090,243.069 82.680,245.012 86.200 C 246.956 89.720,250.257 95.390,252.348 98.800 C 254.439 102.210,257.282 106.980,258.665 109.400 C 260.048 111.820,261.366 114.115,261.593 114.500 C 262.475 115.992,263.233 114.725,263.808 110.800 C 263.953 109.810,264.497 107.560,265.017 105.800 C 265.536 104.040,267.149 98.550,268.600 93.600 C 275.596 69.738,281.986 55.941,290.509 46.292 C 292.108 44.481,294.782 41.380,296.452 39.400 C 305.659 28.480,316.178 21.882,326.394 20.617 C 329.009 20.293,331.600 19.915,332.153 19.776 C 332.705 19.637,333.786 19.731,334.554 19.985 C 335.695 20.361,336.172 20.331,337.156 19.823 C 342.099 17.266,345.867 21.760,349.714 34.800 C 350.266 36.670,351.115 39.550,351.601 41.200 C 352.906 45.630,356.759 57.954,357.416 59.800 C 358.622 63.187,359.658 70.624,359.868 77.400 C 360.196 87.992,359.083 91.731,353.498 98.811 C 349.581 103.776,344.282 112.558,342.826 116.500 C 342.026 118.666,343.414 117.602,349.808 111.147 C 370.055 90.707,381.776 84.170,389.217 89.167 C 392.823 91.589,393.032 95.397,389.801 99.800 C 386.697 104.028,376.935 124.902,374.088 133.400 C 367.778 152.229,367.037 156.894,370.471 156.174 C 371.067 156.049,372.042 156.208,372.671 156.533 C 373.292 156.853,375.240 157.323,377.000 157.576 C 382.333 158.342,384.542 158.847,385.800 159.588 C 386.460 159.977,388.580 160.690,390.511 161.172 C 392.442 161.655,394.602 162.289,395.311 162.580 C 396.020 162.872,397.365 163.236,398.300 163.390 L 400.000 163.670 400.000 81.835 L 400.000 0.000 200.000 0.000 L 0.000 0.000 0.000 138.400 M240.434 12.814 C 241.968 13.449,241.960 13.474,239.373 16.014 C 238.148 17.216,236.164 19.595,234.964 21.300 C 233.764 23.005,232.628 24.400,232.440 24.400 C 231.496 24.400,231.136 23.196,231.530 21.351 C 232.580 16.424,228.169 16.614,226.938 21.548 L 226.477 23.400 226.438 21.524 C 226.417 20.492,226.580 19.536,226.800 19.400 C 227.020 19.264,227.205 18.848,227.211 18.476 C 227.280 14.299,235.510 10.775,240.434 12.814 M335.895 49.917 C 335.525 51.173,335.015 53.550,334.762 55.200 C 334.509 56.850,333.946 59.910,333.511 62.000 C 333.075 64.090,332.554 66.700,332.354 67.800 C 331.849 70.564,331.202 73.860,330.744 76.000 C 330.533 76.990,330.184 80.050,329.970 82.800 C 329.026 94.943,327.887 101.579,326.178 104.900 C 325.628 105.968,325.200 107.490,325.200 108.374 C 325.200 109.240,325.002 110.455,324.759 111.074 C 321.891 118.396,322.034 126.243,325.086 129.105 L 326.905 130.809 326.712 133.818 C 326.501 137.092,326.833 137.744,328.077 136.501 C 328.721 135.857,329.014 134.528,329.610 129.552 C 330.015 126.169,330.703 121.240,331.137 118.600 C 332.996 107.315,333.643 102.318,334.763 90.600 C 336.325 74.251,337.501 48.568,336.724 47.791 C 336.638 47.704,336.265 48.661,335.895 49.917 M253.961 69.600 C 254.228 70.590,254.711 72.840,255.034 74.600 C 255.356 76.360,255.871 78.610,256.177 79.600 C 256.483 80.590,256.956 82.660,257.227 84.200 C 257.499 85.740,258.070 88.440,258.498 90.200 C 261.133 101.061,258.888 97.704,255.688 86.000 C 254.285 80.868,253.803 78.473,252.399 69.658 C 251.770 65.713,252.899 65.671,253.961 69.600 M343.100 69.600 C 342.970 70.150,342.589 71.689,342.255 73.021 C 340.966 78.149,339.496 99.642,340.397 100.198 C 341.018 100.582,342.343 98.932,342.544 97.522 C 342.648 96.795,342.885 95.116,343.072 93.792 C 343.258 92.468,343.292 90.668,343.146 89.792 C 343.000 88.916,343.047 86.580,343.250 84.600 C 344.071 76.579,344.279 71.023,343.803 69.800 L 343.336 68.600 343.100 69.600 M354.461 150.622 C 353.567 152.957,353.271 159.214,353.969 161.000 L 354.282 161.800 354.516 161.000 C 356.753 153.376,356.706 144.754,354.461 150.622 M354.648 194.516 C 354.134 194.891,354.015 195.321,354.210 196.099 C 354.775 198.350,356.564 198.587,356.878 196.453 C 357.190 194.321,356.150 193.417,354.648 194.516 M392.600 202.189 C 388.640 203.770,383.420 205.657,381.000 206.382 C 373.870 208.517,369.930 209.602,367.800 210.015 C 364.096 210.733,362.480 211.885,364.233 212.557 C 365.234 212.942,367.400 212.840,367.853 212.387 C 368.080 212.160,370.023 211.910,372.171 211.832 L 376.076 211.690 375.890 212.662 C 375.737 213.463,375.941 213.732,377.055 214.197 C 378.456 214.783,380.209 216.500,380.610 217.680 C 381.041 218.948,378.548 222.282,372.593 228.400 C 370.076 230.986,369.227 232.709,370.304 233.046 C 370.687 233.165,371.478 233.519,372.062 233.831 C 373.768 234.745,374.600 234.520,377.432 232.376 C 383.142 228.054,390.012 223.768,394.800 221.542 L 399.800 219.218 399.912 214.209 C 399.974 211.454,399.974 206.976,399.912 204.257 L 399.800 199.314 392.600 202.189 M363.372 214.960 C 358.338 217.272,358.639 220.113,363.792 218.937 C 368.515 217.859,369.442 217.055,368.079 215.220 C 367.088 213.887,365.855 213.819,363.372 214.960 M397.535 223.104 C 396.510 223.927,394.866 225.500,393.882 226.600 C 392.898 227.700,391.104 229.222,389.896 229.983 C 388.622 230.785,387.246 232.082,386.621 233.069 C 386.029 234.006,384.614 235.544,383.478 236.486 C 377.592 241.370,374.166 245.275,373.028 248.400 C 371.672 252.124,371.158 253.200,370.732 253.200 C 370.550 253.200,370.400 253.399,370.400 253.642 C 370.400 253.886,369.841 254.791,369.157 255.655 C 368.473 256.518,367.593 258.074,367.201 259.112 C 366.621 260.651,366.097 261.237,364.372 262.280 C 360.100 264.862,361.389 265.619,366.961 263.800 C 368.646 263.250,370.582 262.800,371.262 262.800 C 371.943 262.800,373.933 262.153,375.686 261.361 C 386.397 256.525,394.312 259.867,391.796 268.164 C 391.036 270.669,391.019 270.523,392.236 271.969 C 393.488 273.457,394.341 273.517,395.746 272.215 C 396.331 271.673,397.528 271.014,398.405 270.751 L 400.000 270.273 400.000 245.937 C 400.000 232.552,399.865 221.602,399.700 221.604 C 399.535 221.607,398.561 222.282,397.535 223.104 M252.880 230.094 C 252.219 232.489,252.759 238.696,253.649 238.929 C 254.530 239.159,256.248 237.909,256.608 236.775 C 256.876 235.931,254.753 230.251,253.794 229.248 C 253.351 228.783,253.205 228.919,252.880 230.094 M361.800 231.907 C 360.920 232.554,359.750 233.839,359.200 234.762 C 358.650 235.685,357.702 237.090,357.093 237.884 C 356.311 238.903,356.067 239.573,356.262 240.164 C 356.682 241.440,356.505 242.534,355.794 243.054 C 355.199 243.489,355.487 244.046,356.400 244.227 C 356.510 244.249,357.133 244.487,357.784 244.756 C 360.288 245.789,364.774 242.890,366.353 239.219 C 366.821 238.134,367.382 237.135,367.601 236.999 C 368.290 236.574,368.069 232.974,367.296 232.019 C 366.105 230.549,363.713 230.500,361.800 231.907 M254.624 240.213 C 254.196 240.536,253.556 240.800,253.199 240.800 C 252.442 240.800,250.000 243.073,250.000 243.778 C 250.000 244.443,251.512 245.704,253.245 246.484 C 259.035 249.091,264.555 253.898,264.196 256.021 C 263.966 257.387,264.049 257.550,265.374 258.332 C 266.158 258.794,266.800 259.342,266.800 259.549 C 266.800 259.755,267.623 260.406,268.629 260.996 C 269.635 261.586,271.731 263.178,273.286 264.534 C 274.842 265.890,277.079 267.779,278.257 268.732 L 280.399 270.464 280.158 272.732 C 279.928 274.885,279.238 276.054,277.940 276.487 C 277.625 276.592,277.655 276.899,278.042 277.518 C 278.580 278.380,279.600 278.735,279.600 278.061 C 279.600 277.572,280.578 276.573,284.300 273.256 C 288.800 269.246,288.744 267.518,283.968 263.035 C 281.187 260.423,281.140 260.127,283.067 257.328 C 284.874 254.705,284.772 254.426,280.376 249.962 C 275.526 245.036,271.331 243.522,268.883 245.812 C 266.860 247.704,264.538 247.589,264.136 245.578 C 263.467 242.236,256.869 238.514,254.624 240.213 M350.325 245.434 C 349.461 246.355,348.235 247.213,347.599 247.340 C 346.760 247.508,346.070 248.152,345.087 249.686 C 344.341 250.849,343.015 252.444,342.140 253.231 C 340.346 254.846,339.483 256.145,337.080 260.847 C 334.678 265.546,334.496 265.842,333.243 267.096 C 332.343 267.996,332.151 268.488,332.302 269.513 C 332.640 271.818,333.306 271.300,336.814 266.000 C 339.792 261.500,339.885 261.386,343.781 257.402 C 345.772 255.367,348.138 253.329,349.039 252.874 C 350.923 251.922,352.165 250.276,351.865 249.128 C 351.726 248.595,352.120 247.827,353.073 246.772 C 353.877 245.882,354.392 244.957,354.266 244.629 C 354.145 244.311,354.242 243.986,354.482 243.906 C 354.723 243.826,354.239 243.760,353.407 243.760 C 352.147 243.760,351.631 244.040,350.325 245.434 M228.480 247.680 C 228.216 247.944,228.000 248.548,228.000 249.022 C 228.000 249.495,227.550 250.369,227.000 250.962 C 225.561 252.515,226.583 254.400,228.863 254.400 C 229.419 254.400,230.667 254.845,231.637 255.390 C 238.336 259.150,246.234 262.539,247.784 262.317 C 248.966 262.148,248.945 256.938,247.756 255.295 C 246.717 253.858,236.894 248.913,234.424 248.583 C 233.421 248.449,231.921 248.083,231.092 247.769 C 229.260 247.078,229.088 247.072,228.480 247.680 M203.365 249.397 C 202.335 250.969,202.965 252.317,206.235 255.537 C 210.247 259.489,211.642 262.415,210.201 263.856 C 208.922 265.135,211.559 267.120,215.484 267.833 C 216.318 267.984,217.709 268.465,218.575 268.900 C 222.148 270.698,227.018 271.600,231.286 271.255 C 232.446 271.162,232.896 269.801,232.261 268.309 C 231.417 266.329,230.150 265.385,225.785 263.487 L 221.800 261.755 218.814 257.422 C 216.887 254.626,214.863 252.259,213.104 250.745 L 210.379 248.400 207.199 248.400 C 204.250 248.400,203.971 248.473,203.365 249.397 M270.447 251.953 C 273.008 254.514,272.368 255.679,268.945 254.686 C 266.767 254.054,266.065 252.393,267.407 251.050 C 268.346 250.111,268.715 250.221,270.447 251.953 M268.334 257.151 C 268.740 257.408,268.668 257.541,268.034 257.707 C 267.192 257.927,266.606 257.528,267.078 257.056 C 267.413 256.720,267.687 256.741,268.334 257.151 M236.267 261.467 C 235.608 262.125,236.103 263.158,237.364 263.756 C 239.513 264.776,241.171 263.515,239.748 261.942 C 239.095 261.221,236.822 260.911,236.267 261.467 M54.667 264.185 C 52.313 265.582,51.657 266.339,52.400 266.805 C 53.251 267.339,54.397 266.905,55.900 265.477 C 58.180 263.313,57.442 262.539,54.667 264.185 M261.688 264.269 C 261.406 264.382,260.716 265.382,260.154 266.490 C 258.841 269.081,259.302 269.796,261.863 269.144 C 263.202 268.804,263.749 268.842,264.663 269.341 C 265.289 269.682,266.189 270.171,266.664 270.428 C 268.236 271.278,271.548 267.934,270.621 266.434 C 270.481 266.207,269.609 265.832,268.683 265.601 C 267.757 265.369,266.409 264.914,265.686 264.590 C 264.388 264.007,262.681 263.870,261.688 264.269 M254.400 265.315 C 253.850 265.592,253.043 266.481,252.607 267.291 C 251.000 270.273,247.780 270.688,244.272 268.365 C 241.811 266.734,240.106 266.829,241.002 268.546 C 241.754 269.986,241.752 270.546,240.990 272.020 C 240.325 273.305,239.318 273.572,238.932 272.566 C 238.507 271.459,237.987 272.840,238.242 274.400 C 238.644 276.868,238.813 277.139,240.118 277.415 C 240.823 277.564,241.961 278.027,242.647 278.443 C 245.154 279.964,247.195 278.465,247.199 275.100 C 247.200 273.905,247.351 273.600,247.944 273.600 C 248.353 273.600,249.351 273.150,250.162 272.600 C 252.535 270.990,257.200 272.216,257.200 274.450 C 257.200 275.714,257.857 276.303,258.525 275.635 C 258.861 275.299,258.863 274.993,258.533 274.465 C 257.093 272.159,255.568 267.388,255.981 266.481 C 256.699 264.905,256.096 264.461,254.400 265.315 M296.875 267.584 C 295.758 269.095,295.774 269.519,297.075 272.849 L 298.149 275.600 300.399 275.600 C 301.637 275.600,304.055 275.968,305.773 276.418 C 307.491 276.868,308.991 277.142,309.107 277.026 C 309.516 276.618,307.214 273.657,305.153 271.940 C 304.004 270.983,302.132 269.345,300.993 268.300 C 298.573 266.079,298.054 265.989,296.875 267.584 M349.700 267.065 C 349.425 267.176,349.200 267.522,349.200 267.833 C 349.200 268.552,350.558 268.573,351.148 267.863 C 351.856 267.009,351.003 266.539,349.700 267.065 M60.000 267.489 C 60.000 267.992,61.143 268.990,61.412 268.721 C 61.518 268.615,61.244 268.202,60.802 267.802 C 60.361 267.403,60.000 267.262,60.000 267.489 M210.089 270.289 C 208.812 270.751,207.620 274.545,208.243 276.167 C 208.686 277.323,210.782 276.970,211.238 275.662 C 211.456 275.037,212.167 274.131,212.817 273.650 C 214.068 272.725,214.173 272.491,213.680 271.716 C 213.267 271.066,210.729 270.057,210.089 270.289 M63.600 271.538 C 63.600 271.724,63.960 272.202,64.400 272.600 C 64.840 272.998,65.200 273.660,65.200 274.071 C 65.200 274.481,65.651 275.023,66.202 275.274 C 68.173 276.172,68.022 274.434,66.029 273.291 C 65.377 272.917,64.761 272.293,64.659 271.905 C 64.475 271.201,63.600 270.898,63.600 271.538 M329.830 273.067 C 329.689 273.434,329.761 273.921,329.990 274.150 C 330.515 274.675,331.821 273.481,331.424 272.838 C 331.018 272.182,330.120 272.310,329.830 273.067 M31.919 275.905 C 31.544 275.985,31.131 276.386,31.001 276.795 C 30.872 277.205,30.310 278.210,29.755 279.029 C 28.587 280.749,28.886 281.184,31.240 281.194 C 32.032 281.197,33.242 281.396,33.928 281.635 C 34.853 281.957,35.559 281.944,36.655 281.582 C 37.952 281.154,38.196 281.180,38.647 281.797 C 38.930 282.184,39.935 282.669,40.881 282.875 C 44.908 283.752,44.800 283.753,44.800 282.855 C 44.800 281.771,43.456 280.913,41.200 280.555 C 40.162 280.391,38.970 279.866,38.384 279.316 C 36.932 277.951,32.724 275.731,31.919 275.905 M284.000 278.000 C 283.230 278.422,281.830 278.774,280.889 278.783 C 277.445 278.817,275.706 281.369,277.391 283.915 C 278.750 285.968,279.054 287.689,278.208 288.535 C 277.477 289.266,273.200 289.506,273.200 288.815 C 273.200 288.604,272.483 288.238,271.607 288.002 C 269.855 287.530,269.011 286.424,269.421 285.135 C 269.760 284.065,269.054 283.614,267.026 283.606 C 265.985 283.602,265.150 283.316,264.560 282.762 C 263.410 281.682,261.684 282.385,261.031 284.200 C 260.640 285.288,260.456 285.388,259.061 285.274 C 257.174 285.119,255.814 286.105,256.402 287.203 C 257.040 288.395,261.024 288.681,262.438 287.635 C 265.356 285.478,268.270 288.984,265.581 291.418 C 263.529 293.274,264.563 294.802,268.800 296.177 C 272.895 297.506,274.757 298.385,275.578 299.374 C 275.893 299.754,276.748 300.003,277.749 300.009 C 280.752 300.025,283.812 301.988,284.768 304.511 C 285.247 305.775,285.111 305.873,281.200 307.106 C 279.255 307.720,278.907 307.998,278.200 309.510 C 277.478 311.053,277.288 311.200,276.250 311.010 C 275.618 310.895,274.263 310.800,273.241 310.800 L 271.382 310.800 270.932 308.900 C 270.426 306.763,270.903 305.622,273.512 302.731 C 275.182 300.880,274.627 300.419,271.041 300.678 C 268.670 300.848,268.537 300.805,266.400 299.151 C 263.988 297.285,262.108 296.752,260.075 297.356 C 259.138 297.634,258.025 297.595,256.275 297.220 C 253.297 296.583,250.974 296.646,249.610 297.402 C 246.736 298.993,246.848 298.968,246.002 298.201 C 244.808 297.121,244.905 293.874,246.205 291.429 C 247.382 289.215,247.247 288.800,245.348 288.800 C 244.136 288.800,243.953 288.676,244.016 287.900 C 244.241 285.114,242.896 285.256,241.238 288.194 C 239.690 290.937,239.693 291.010,241.445 294.490 C 244.120 299.801,245.798 301.331,247.489 300.001 C 249.271 298.600,254.307 298.842,255.800 300.400 C 257.117 301.774,257.812 301.868,259.773 300.933 C 261.735 299.997,263.579 300.656,266.584 303.366 C 269.399 305.907,269.266 306.541,265.829 306.945 C 264.640 307.085,263.125 307.510,262.462 307.890 C 261.405 308.497,261.049 308.518,259.529 308.061 C 254.357 306.507,246.400 306.608,246.400 308.228 C 246.400 309.880,248.335 311.712,249.766 311.414 C 255.305 310.259,256.542 310.249,258.160 311.347 C 260.059 312.636,260.079 312.636,263.362 311.400 C 266.278 310.302,267.996 310.161,269.991 310.857 L 271.301 311.313 271.085 313.692 C 270.882 315.938,270.748 316.189,268.683 318.205 L 266.497 320.339 264.840 319.919 C 263.438 319.563,262.987 319.169,261.899 317.349 C 260.340 314.743,260.000 314.672,260.000 316.951 C 260.000 319.773,257.100 320.401,251.631 318.762 C 249.610 318.156,249.454 318.309,249.202 321.131 L 249.000 323.400 247.600 323.214 C 243.900 322.723,241.806 322.956,241.675 323.875 C 241.463 325.366,242.917 326.395,245.300 326.440 C 246.455 326.462,247.850 326.611,248.400 326.771 C 249.270 327.025,249.479 326.885,250.007 325.698 C 251.145 323.143,257.176 321.730,259.509 323.472 C 261.244 324.767,261.444 325.381,260.625 326.901 C 259.996 328.070,259.960 328.468,260.375 329.725 C 261.450 332.981,257.485 333.990,252.868 331.635 C 249.563 329.949,246.419 332.446,246.402 336.772 C 246.399 337.571,243.642 340.110,242.211 340.631 C 241.557 340.869,240.460 341.859,239.772 342.832 C 238.641 344.432,238.366 344.600,236.882 344.600 C 234.640 344.600,232.400 347.526,232.400 350.456 C 232.400 353.383,233.896 353.454,235.164 350.588 C 236.016 348.662,237.755 347.815,239.526 348.462 C 241.432 349.158,241.941 348.884,243.098 346.538 C 245.187 342.302,247.579 341.571,250.090 344.401 C 251.810 346.340,252.025 347.788,250.800 349.200 C 249.926 350.207,249.910 350.372,250.375 353.600 C 250.550 354.810,250.542 356.203,250.358 356.696 C 250.078 357.444,250.216 357.691,251.192 358.196 C 253.897 359.595,255.724 358.437,253.906 356.476 C 250.786 353.110,251.588 348.755,255.547 347.569 C 257.342 347.031,265.178 348.579,266.953 349.822 C 268.628 350.995,273.852 349.606,274.544 347.803 C 275.103 346.344,271.699 343.611,265.709 340.710 C 262.579 339.194,259.910 337.778,259.777 337.562 C 259.435 337.009,262.549 334.000,263.464 334.000 C 263.881 334.000,264.631 333.714,265.130 333.364 L 266.038 332.728 264.704 331.064 C 261.267 326.773,261.193 325.917,264.100 324.006 C 265.983 322.768,266.572 322.601,269.800 322.387 C 272.028 322.239,273.857 321.892,274.600 321.477 C 276.301 320.524,281.141 321.559,287.388 324.210 C 295.346 327.588,295.172 318.814,287.200 314.746 C 283.707 312.963,283.704 312.956,284.875 309.900 C 285.386 308.568,286.740 308.429,287.800 309.600 C 288.747 310.646,289.372 310.609,291.465 309.383 C 293.601 308.131,293.610 307.875,291.574 306.054 C 290.209 304.833,288.671 301.600,289.455 301.600 C 291.719 301.600,295.818 305.697,295.411 307.552 C 295.120 308.877,296.149 311.289,297.545 312.551 C 299.129 313.984,303.600 313.460,303.600 311.842 C 303.600 311.324,304.230 309.517,305.000 307.828 C 305.770 306.138,306.400 304.440,306.400 304.055 C 306.400 303.425,300.823 296.958,296.953 293.100 C 295.494 291.646,295.631 290.490,297.271 290.413 C 297.892 290.384,298.800 289.078,298.800 288.215 C 298.800 286.792,296.201 283.959,291.644 280.415 C 287.156 276.925,286.400 276.686,284.000 278.000 M309.769 278.898 C 309.373 280.146,308.426 280.772,306.914 280.787 C 306.207 280.794,304.787 281.085,303.760 281.434 C 302.620 281.821,301.366 281.970,300.546 281.816 C 298.386 281.411,298.878 282.506,301.437 283.801 C 303.909 285.052,304.720 286.104,307.049 291.078 C 308.743 294.696,308.623 295.934,306.518 296.538 C 304.278 297.180,304.468 298.587,307.138 301.104 C 310.878 304.631,315.238 296.634,312.475 291.316 C 311.467 289.377,311.301 285.621,312.056 281.861 C 312.661 278.852,310.621 276.212,309.769 278.898 M259.200 279.151 C 259.200 279.618,259.369 280.000,259.576 280.000 C 260.269 280.000,260.398 279.296,259.796 278.796 C 259.300 278.385,259.200 278.445,259.200 279.151 M71.200 279.600 C 71.200 281.587,69.923 282.028,60.317 283.351 C 50.001 284.772,53.903 288.610,66.000 288.940 C 67.529 288.982,68.566 289.260,69.400 289.852 C 70.717 290.786,72.228 291.048,79.400 291.585 C 83.282 291.876,84.993 292.222,88.345 293.394 C 90.625 294.191,92.590 294.743,92.712 294.622 C 92.834 294.500,92.747 294.400,92.520 294.400 C 92.292 294.400,91.633 293.685,91.055 292.812 C 90.407 291.832,88.585 290.275,86.302 288.749 C 84.266 287.389,81.503 285.410,80.162 284.352 C 74.996 280.278,71.200 278.265,71.200 279.600 M191.000 279.200 C 190.864 279.420,190.859 279.772,190.989 279.982 C 191.119 280.193,190.957 281.007,190.629 281.792 C 189.912 283.507,190.054 283.934,191.720 285.080 C 197.508 289.059,209.763 292.481,211.900 290.715 C 212.638 290.105,212.512 287.822,211.700 287.107 C 210.170 285.758,198.947 280.816,196.000 280.194 C 195.230 280.031,194.245 279.651,193.811 279.349 C 192.889 278.707,191.355 278.626,191.000 279.200 M230.200 279.090 C 229.760 279.198,228.279 279.910,226.909 280.672 C 225.539 281.435,224.223 281.938,223.983 281.790 C 222.099 280.625,219.471 282.953,220.666 284.727 C 221.064 285.317,221.662 286.362,221.995 287.049 C 222.925 288.969,225.406 290.935,226.539 290.651 C 228.333 290.201,231.296 286.547,230.991 285.160 C 230.599 283.374,231.497 281.648,233.470 280.396 L 235.199 279.300 233.950 279.050 C 232.578 278.776,231.427 278.788,230.200 279.090 M270.529 279.440 C 270.228 280.226,271.247 280.966,271.683 280.279 C 272.181 279.495,272.042 278.800,271.387 278.800 C 271.051 278.800,270.664 279.088,270.529 279.440 M287.255 287.503 C 291.116 289.786,292.477 291.600,290.330 291.600 C 289.657 291.600,289.560 291.765,289.795 292.500 C 290.837 295.750,289.276 296.408,286.239 294.000 C 281.563 290.293,282.444 284.659,287.255 287.503 M249.415 287.175 C 248.795 288.180,250.810 288.943,252.258 288.253 C 253.051 287.875,253.594 287.461,253.466 287.333 C 253.094 286.960,249.631 286.826,249.415 287.175 M352.887 289.024 C 352.396 289.368,351.663 290.313,351.257 291.124 C 350.851 291.936,349.862 293.669,349.059 294.976 C 347.534 297.460,347.188 299.356,348.188 299.740 C 348.919 300.021,349.945 299.029,350.637 297.374 C 351.205 296.015,353.705 293.600,354.544 293.600 C 354.828 293.600,355.452 293.183,355.930 292.674 C 358.027 290.442,355.385 287.274,352.887 289.024 M398.314 294.345 C 397.591 294.974,396.428 295.782,395.728 296.140 C 395.029 296.498,393.462 297.662,392.246 298.725 C 390.881 299.920,388.959 301.082,387.220 301.764 C 385.670 302.372,383.547 303.587,382.501 304.464 C 379.448 307.024,374.035 309.574,371.095 309.836 C 369.469 309.982,367.517 310.551,365.491 311.472 C 362.089 313.019,361.180 313.054,357.888 311.766 C 355.413 310.798,355.012 311.056,353.000 314.919 C 350.399 319.913,349.305 319.508,347.274 312.800 C 346.186 309.205,345.402 308.832,342.351 310.458 C 338.867 312.315,338.376 313.018,337.960 316.742 C 337.763 318.503,337.436 320.379,337.234 320.910 C 337.032 321.441,336.968 323.352,337.092 325.157 C 337.276 327.839,337.215 328.417,336.758 328.319 C 336.375 328.237,336.187 328.613,336.160 329.520 C 336.138 330.246,335.913 331.047,335.660 331.300 C 335.062 331.898,335.038 338.653,335.633 339.020 C 335.870 339.167,336.545 338.835,337.133 338.283 C 337.720 337.730,338.560 337.214,339.000 337.135 C 339.913 336.973,340.395 333.835,339.626 333.066 C 338.886 332.326,339.166 331.845,339.931 332.538 C 340.334 332.902,340.964 333.200,341.331 333.200 C 341.699 333.200,342.000 333.362,342.000 333.561 C 342.000 333.759,342.542 334.111,343.205 334.342 C 343.868 334.573,344.523 335.054,344.660 335.412 C 344.797 335.769,345.325 336.219,345.834 336.413 C 346.342 336.606,347.077 337.267,347.467 337.882 C 347.857 338.497,348.649 339.630,349.226 340.400 C 354.563 347.521,353.878 352.982,347.139 357.055 C 345.368 358.125,343.036 359.761,341.956 360.692 C 340.875 361.623,339.477 362.650,338.848 362.975 C 338.219 363.301,336.916 364.442,335.952 365.511 C 333.166 368.604,332.426 368.952,329.211 368.682 C 324.757 368.309,324.500 369.678,328.015 375.060 C 330.744 379.238,332.800 383.760,332.800 385.585 C 332.800 388.687,333.991 391.158,337.819 396.000 C 338.950 397.430,339.987 398.915,340.125 399.300 C 340.360 399.958,342.156 400.000,370.187 400.000 L 400.000 400.000 400.000 346.600 C 400.000 317.230,399.916 293.200,399.814 293.200 C 399.712 293.200,399.037 293.715,398.314 294.345 M230.827 294.749 C 230.251 295.826,230.290 296.611,230.947 297.156 C 231.713 297.792,232.496 296.771,232.329 295.355 C 232.169 293.999,231.396 293.687,230.827 294.749 M204.576 298.180 C 203.492 299.835,203.941 300.583,206.104 300.722 C 208.242 300.859,208.463 300.456,207.390 298.380 C 206.640 296.931,205.450 296.846,204.576 298.180 M212.344 298.544 C 209.131 300.252,208.943 300.426,209.097 301.549 C 209.247 302.643,207.212 305.188,205.055 306.601 C 203.825 307.407,204.150 308.715,206.155 311.034 C 207.802 312.940,208.800 312.735,208.800 310.491 C 208.800 306.357,212.038 304.097,214.661 306.400 C 216.821 308.297,217.604 307.645,216.596 304.789 C 216.281 303.895,215.904 302.227,215.758 301.082 C 215.284 297.359,214.987 297.138,212.344 298.544 M226.902 300.100 C 226.235 300.942,226.011 305.462,226.596 306.263 C 227.087 306.934,229.830 305.646,230.615 304.376 C 231.230 303.381,228.980 299.600,227.773 299.600 C 227.512 299.600,227.120 299.825,226.902 300.100 M193.596 306.100 C 192.617 307.704,192.617 307.674,193.628 309.655 C 195.349 313.029,192.948 313.259,185.446 310.437 C 179.390 308.160,177.919 308.317,180.630 310.951 C 182.262 312.535,182.130 313.311,180.260 313.129 C 178.554 312.963,178.721 314.140,180.647 315.869 C 182.766 317.770,184.333 318.357,188.457 318.794 C 190.516 319.012,192.830 319.359,193.600 319.565 C 201.235 321.604,205.036 317.643,198.305 314.662 C 195.248 313.308,194.722 312.538,196.145 311.502 C 197.191 310.740,197.243 310.563,196.992 308.645 C 196.497 304.872,195.020 303.764,193.596 306.100 M234.600 305.101 C 233.636 305.302,232.800 306.297,232.800 307.245 C 232.800 308.205,235.541 309.136,236.041 308.347 C 236.949 306.914,236.013 304.808,234.600 305.101 M236.921 315.746 C 233.202 319.465,233.816 321.736,238.241 320.625 C 239.296 320.361,240.226 317.753,239.828 316.171 C 239.520 314.942,240.019 314.710,242.012 315.158 C 244.048 315.616,246.103 315.034,245.916 314.054 C 245.816 313.527,245.179 313.377,242.647 313.282 L 239.502 313.165 236.921 315.746 M0.000 357.000 L 0.000 400.000 3.300 399.996 L 6.600 399.991 10.571 396.496 C 19.003 389.074,27.487 381.827,29.449 380.371 C 41.670 371.299,61.804 359.329,70.000 356.261 C 71.430 355.726,75.030 354.335,78.000 353.170 C 83.390 351.055,83.409 351.051,88.200 350.991 C 96.701 350.886,96.437 350.985,94.243 348.725 C 93.160 347.610,92.371 347.228,90.343 346.834 C 82.129 345.240,79.693 344.640,77.092 343.570 C 75.501 342.916,72.580 342.019,70.600 341.578 C 66.609 340.689,62.704 339.487,56.400 337.209 C 54.090 336.374,49.230 334.754,45.600 333.609 C 33.982 329.943,16.754 322.689,11.648 319.311 C 9.572 317.939,1.235 314.000,0.405 314.000 C 0.134 314.000,0.000 328.220,0.000 357.000 M229.674 315.900 C 229.883 317.003,232.400 317.119,232.400 316.025 C 232.400 315.346,232.148 315.200,230.971 315.200 C 229.826 315.200,229.568 315.339,229.674 315.900 M275.939 316.178 C 276.142 317.235,274.917 318.091,273.945 317.570 C 273.008 317.069,272.987 316.166,273.900 315.627 C 274.891 315.042,275.766 315.279,275.939 316.178 M301.376 317.777 C 300.417 318.489,300.846 319.372,302.797 320.700 C 304.456 321.830,304.570 321.824,305.136 320.581 C 306.394 317.821,303.861 315.932,301.376 317.777 M228.036 322.157 C 227.781 322.463,227.039 322.935,226.387 323.205 C 224.329 324.058,225.254 326.424,227.961 327.236 C 231.031 328.155,233.494 325.398,231.040 323.789 C 230.485 323.426,229.922 322.785,229.789 322.364 C 229.504 321.466,228.689 321.370,228.036 322.157 M273.616 325.700 C 273.649 326.705,275.867 328.772,277.805 329.602 L 279.794 330.455 280.719 329.380 C 282.357 327.475,281.811 326.600,278.983 326.600 C 277.355 326.600,276.217 326.372,275.497 325.900 C 274.238 325.075,273.594 325.007,273.616 325.700 M184.934 327.827 C 184.802 328.172,184.898 328.658,185.147 328.907 C 185.942 329.702,185.705 331.879,184.798 332.116 C 183.687 332.407,184.100 333.143,186.301 334.800 C 190.634 338.061,197.883 340.357,202.160 339.822 C 205.599 339.393,207.345 336.541,205.302 334.693 C 204.463 333.933,199.843 332.006,198.824 331.991 C 198.481 331.985,197.120 331.529,195.800 330.977 C 194.480 330.425,192.537 329.802,191.483 329.593 C 190.428 329.385,188.971 328.761,188.245 328.207 C 186.748 327.066,185.291 326.898,184.934 327.827 M302.752 329.203 C 302.395 329.412,298.647 329.629,294.422 329.685 C 289.575 329.751,286.610 329.947,286.386 330.217 C 285.715 331.025,289.276 334.143,292.860 335.886 C 294.723 336.792,296.494 337.832,296.797 338.196 C 297.099 338.560,298.034 339.209,298.873 339.637 C 301.196 340.822,301.077 342.538,298.600 343.600 C 296.510 344.496,296.430 344.896,297.800 347.600 C 299.920 351.784,298.705 352.689,290.200 353.260 C 283.680 353.699,280.512 354.128,279.996 354.644 C 279.488 355.152,281.595 359.192,283.467 361.301 C 286.640 364.875,284.249 370.397,279.529 370.399 C 277.684 370.400,276.800 371.259,276.800 373.049 L 276.800 374.441 281.700 374.321 C 286.550 374.201,286.630 374.214,289.505 375.562 C 292.981 377.190,293.823 377.002,295.514 374.215 C 296.828 372.049,296.880 372.040,297.719 373.800 C 298.523 375.484,298.555 375.487,300.705 374.030 C 302.226 372.999,302.542 372.923,303.623 373.331 C 305.272 373.954,305.430 373.600,305.755 368.578 C 305.986 365.014,305.908 364.060,305.216 361.909 C 304.772 360.529,304.316 358.919,304.204 358.331 C 304.092 357.743,303.523 356.694,302.939 356.001 C 301.881 354.743,301.879 354.734,302.317 351.178 C 303.256 343.549,306.970 339.249,310.953 341.177 C 311.933 341.652,313.379 342.144,314.167 342.272 L 315.600 342.505 315.600 339.785 C 315.600 337.502,315.793 336.723,316.800 334.938 C 318.374 332.149,318.316 331.823,316.416 332.792 C 315.545 333.236,314.186 333.600,313.396 333.600 C 312.606 333.600,311.428 333.875,310.777 334.212 C 309.186 335.035,308.268 334.502,307.015 332.030 C 305.451 328.944,304.395 328.243,302.752 329.203 M236.034 331.258 C 234.215 333.448,234.632 334.205,237.650 334.188 C 240.685 334.172,241.200 333.889,241.200 332.241 C 241.200 329.155,238.248 328.594,236.034 331.258 M271.900 331.232 C 270.762 331.895,271.086 332.736,273.000 334.085 C 275.592 335.912,275.418 336.573,272.432 336.235 C 269.093 335.858,268.455 338.086,271.469 339.600 C 272.091 339.912,273.410 340.741,274.400 341.443 C 277.045 343.316,282.746 346.000,284.081 346.000 C 286.045 346.000,290.000 343.060,290.000 341.600 C 290.000 340.632,287.491 338.467,285.900 338.062 C 284.965 337.824,282.958 336.827,281.440 335.847 C 279.923 334.867,277.902 333.869,276.950 333.629 C 275.805 333.341,274.919 332.788,274.334 331.997 C 273.386 330.715,272.998 330.593,271.900 331.232 M229.200 334.221 C 225.474 336.835,226.850 340.489,231.157 339.419 C 233.283 338.891,233.982 337.670,232.781 336.583 C 232.360 336.202,231.902 335.285,231.763 334.545 C 231.465 332.957,231.073 332.908,229.200 334.221 M221.190 335.026 C 220.690 336.341,220.684 338.800,221.181 338.800 C 222.627 338.800,225.200 336.997,225.200 335.984 C 225.200 334.191,221.815 333.383,221.190 335.026 M26.382 339.778 C 27.021 340.548,26.759 342.161,25.971 342.312 C 25.344 342.431,24.400 340.911,24.400 339.781 C 24.400 339.031,25.760 339.028,26.382 339.778 M214.669 341.831 C 212.985 342.975,212.740 344.505,214.206 344.716 C 215.257 344.866,217.800 342.299,217.465 341.426 C 217.126 340.542,216.414 340.645,214.669 341.831 M224.523 346.508 C 223.079 347.156,223.420 351.200,224.919 351.200 C 225.665 351.200,227.991 349.433,228.234 348.681 C 228.701 347.236,226.185 345.763,224.523 346.508 M171.900 346.815 C 168.232 349.041,174.742 354.987,180.742 354.890 C 183.168 354.850,185.200 355.896,185.200 357.184 C 185.200 357.331,185.869 357.771,186.686 358.161 C 187.503 358.550,188.845 359.402,189.668 360.054 C 191.286 361.336,198.166 364.696,201.400 365.785 C 204.627 366.871,205.686 368.298,203.953 369.225 C 203.005 369.733,203.052 372.258,204.032 373.439 C 205.295 374.960,211.167 376.185,214.800 375.684 L 217.000 375.381 216.913 373.791 C 216.721 370.284,216.501 369.838,214.193 368.283 C 212.981 367.467,211.678 366.799,211.295 366.799 C 210.913 366.798,209.984 366.393,209.232 365.899 C 206.607 364.174,206.188 364.012,204.343 364.006 C 201.973 363.998,201.613 363.243,203.095 361.386 C 204.802 359.246,205.978 358.936,209.215 359.776 L 211.945 360.484 214.262 359.423 C 219.839 356.870,219.327 355.377,212.000 352.818 C 210.130 352.165,207.391 350.993,205.914 350.215 C 204.436 349.437,202.719 348.800,202.098 348.800 C 201.477 348.800,200.263 348.440,199.400 348.000 C 198.537 347.560,197.503 347.200,197.103 347.200 C 196.260 347.200,195.616 348.472,196.336 348.712 C 197.585 349.128,198.473 352.400,197.338 352.400 C 196.015 352.400,193.943 350.406,194.076 349.262 L 194.200 348.200 190.000 347.929 C 183.853 347.533,175.182 346.814,173.800 346.587 C 173.140 346.479,172.285 346.581,171.900 346.815 M243.332 355.028 C 242.739 355.578,241.477 356.371,240.527 356.791 C 238.562 357.660,238.505 357.853,239.583 359.967 C 240.987 362.719,241.766 362.466,243.040 358.844 C 243.457 357.659,244.204 356.423,244.699 356.098 C 245.195 355.774,245.600 355.278,245.600 354.997 C 245.600 354.016,244.406 354.032,243.332 355.028 M267.178 356.300 C 266.957 356.905,266.055 358.030,265.175 358.800 C 262.346 361.275,262.445 364.480,265.397 365.913 C 267.667 367.017,267.255 367.112,269.340 364.997 C 271.361 362.947,271.943 362.960,273.195 365.081 L 274.026 366.490 276.713 366.204 C 281.521 365.692,281.622 365.423,278.700 360.937 C 277.545 359.164,276.420 357.416,276.200 357.053 C 275.080 355.203,267.801 354.596,267.178 356.300 M142.600 358.458 C 141.720 358.659,139.470 358.998,137.600 359.211 C 135.730 359.424,133.300 359.768,132.200 359.975 C 131.100 360.183,129.981 360.363,129.713 360.376 C 129.444 360.389,129.324 360.658,129.445 360.973 C 129.766 361.810,135.745 361.511,139.955 360.448 C 141.800 359.981,143.805 359.600,144.409 359.600 C 145.943 359.600,147.869 358.589,146.984 358.249 C 146.144 357.927,144.601 358.000,142.600 358.458 M232.092 358.875 C 232.339 359.616,233.076 359.700,233.338 359.017 C 233.504 358.585,233.329 358.400,232.754 358.400 C 232.298 358.400,232.004 358.611,232.092 358.875 M242.400 367.084 C 241.061 367.576,240.400 368.552,240.400 370.038 C 240.400 371.896,240.815 372.189,242.609 371.597 C 244.657 370.921,246.208 371.408,247.163 373.027 C 247.637 373.831,248.290 374.400,248.739 374.400 C 249.160 374.400,250.700 374.850,252.162 375.400 C 254.052 376.112,255.610 376.400,257.565 376.400 C 262.653 376.400,263.607 378.460,260.128 381.935 C 258.848 383.214,257.530 384.662,257.200 385.152 C 256.376 386.377,249.844 386.644,248.700 385.500 C 247.745 384.545,246.850 384.620,245.114 385.800 C 243.477 386.913,242.790 387.030,242.080 386.320 C 241.046 385.286,241.604 384.381,244.386 382.582 C 247.873 380.326,248.151 379.864,247.175 377.951 C 246.276 376.189,245.946 376.036,243.594 376.292 C 240.995 376.576,239.047 375.653,238.029 373.657 C 236.889 371.422,235.837 370.800,233.199 370.800 C 231.626 370.800,230.162 370.452,228.188 369.611 C 226.655 368.957,224.686 368.417,223.813 368.411 C 222.941 368.405,221.459 368.107,220.521 367.749 C 217.376 366.547,215.831 368.299,218.165 370.423 C 219.613 371.741,220.190 372.896,220.580 375.259 C 220.713 376.062,221.174 377.168,221.606 377.717 L 222.391 378.714 221.395 379.366 C 220.848 379.725,220.400 380.287,220.400 380.615 C 220.400 380.944,219.843 382.199,219.162 383.406 C 217.625 386.129,218.019 386.230,222.670 384.304 C 226.337 382.785,229.688 382.599,231.977 383.786 L 233.354 384.500 231.735 386.010 C 228.873 388.680,229.650 389.741,233.338 388.200 C 237.169 386.599,239.384 387.747,238.222 390.731 C 236.407 395.393,237.297 396.173,240.170 392.439 C 244.193 387.210,248.842 387.316,246.368 392.579 C 245.291 394.870,245.754 396.810,247.166 395.928 C 248.336 395.198,248.799 393.828,248.806 391.081 C 248.817 386.492,249.763 386.858,251.714 392.205 C 253.135 396.099,253.930 397.910,254.330 398.157 C 254.689 398.378,257.023 396.387,262.838 390.900 C 266.093 387.827,266.452 387.600,268.043 387.600 C 268.983 387.600,270.759 387.392,271.991 387.137 C 275.085 386.498,276.439 387.141,277.015 389.522 L 277.429 391.237 279.615 389.257 L 281.800 387.277 281.771 384.339 C 281.721 379.347,278.382 375.140,274.081 374.650 C 267.765 373.931,266.352 373.625,264.343 372.543 C 262.985 371.811,261.799 370.768,261.047 369.645 L 259.873 367.889 253.768 368.095 C 248.381 368.276,247.465 368.212,245.988 367.550 C 244.290 366.790,243.484 366.685,242.400 367.084 M226.587 373.985 C 226.977 374.417,227.191 375.047,227.061 375.385 C 226.711 376.297,224.909 376.151,224.383 375.169 C 223.428 373.384,225.187 372.439,226.587 373.985 M231.525 375.705 C 231.616 376.179,231.403 376.400,230.853 376.400 C 229.936 376.400,229.428 375.803,229.814 375.178 C 230.203 374.548,231.371 374.908,231.525 375.705 M271.853 398.741 C 270.957 399.731,271.031 400.000,272.200 400.000 C 272.923 400.000,273.200 399.785,273.200 399.224 C 273.200 398.113,272.612 397.902,271.853 398.741 " stroke="none" fill="#3d596a" fill-rule="evenodd"></path><path id="path1" d="M234.239 12.454 C 230.456 13.731,227.244 16.483,227.211 18.476 C 227.205 18.848,227.020 19.264,226.800 19.400 C 226.580 19.536,226.417 20.492,226.438 21.524 L 226.477 23.400 226.938 21.548 C 228.169 16.614,232.580 16.424,231.530 21.351 C 231.136 23.196,231.496 24.400,232.440 24.400 C 232.628 24.400,233.764 23.005,234.964 21.300 C 236.164 19.595,238.148 17.216,239.373 16.014 C 241.960 13.474,241.968 13.449,240.434 12.814 C 237.880 11.756,236.537 11.678,234.239 12.454 M337.079 19.840 C 336.166 20.335,335.697 20.362,334.557 19.986 C 333.787 19.732,332.705 19.637,332.153 19.776 C 331.600 19.915,329.009 20.293,326.394 20.617 C 316.178 21.882,305.659 28.480,296.452 39.400 C 294.782 41.380,292.108 44.481,290.509 46.292 C 281.986 55.941,275.596 69.738,268.600 93.600 C 267.149 98.550,265.536 104.040,265.017 105.800 C 264.497 107.560,263.953 109.810,263.808 110.800 C 263.233 114.725,262.475 115.992,261.593 114.500 C 261.366 114.115,260.048 111.820,258.665 109.400 C 257.282 106.980,254.439 102.210,252.348 98.800 C 250.257 95.390,246.956 89.720,245.012 86.200 C 243.069 82.680,240.451 78.090,239.195 76.000 C 230.916 62.223,222.918 36.571,225.133 30.899 C 225.739 29.349,226.171 25.200,225.726 25.200 C 224.752 25.200,224.400 28.163,224.390 36.428 C 224.385 41.143,224.205 45.675,223.990 46.500 C 223.776 47.325,223.426 48.675,223.212 49.500 C 221.044 57.891,220.879 77.046,222.800 97.400 C 223.236 102.020,223.695 106.970,223.820 108.400 C 224.416 115.222,226.479 127.996,228.633 138.200 C 229.190 140.840,229.895 144.350,230.199 146.000 C 230.503 147.650,231.660 153.320,232.771 158.600 C 235.741 172.719,235.518 173.720,231.227 165.552 C 229.782 162.802,228.042 159.843,227.360 158.976 C 226.678 158.109,224.026 154.250,221.467 150.400 C 215.580 141.544,211.376 135.765,208.226 132.200 C 206.038 129.723,203.082 126.139,200.000 122.226 C 193.070 113.426,177.698 98.668,166.600 90.159 C 164.620 88.640,152.609 81.335,149.379 79.683 C 140.847 75.321,137.179 73.875,132.000 72.830 C 120.418 70.491,114.400 70.862,114.400 73.914 C 114.400 74.473,113.871 75.756,113.223 76.765 C 112.576 77.774,111.849 79.500,111.608 80.600 C 111.367 81.700,110.195 85.660,109.004 89.400 C 104.620 103.166,102.909 113.575,103.359 123.739 C 103.753 132.646,106.656 147.589,109.742 156.600 C 111.810 162.636,116.978 175.989,117.946 177.795 C 119.865 181.375,119.232 181.592,112.719 179.583 C 90.940 172.867,69.853 171.297,50.600 174.959 C 32.443 178.412,27.920 180.736,30.908 185.078 C 32.063 186.756,32.063 186.813,30.783 198.800 C 29.280 212.885,33.611 227.397,44.319 244.152 C 45.005 245.226,45.685 246.891,45.829 247.852 C 46.027 249.172,46.267 249.600,46.811 249.600 C 47.727 249.600,50.481 252.708,51.518 254.913 C 51.955 255.841,52.692 256.943,53.156 257.362 C 55.069 259.089,53.804 260.460,51.117 259.573 C 49.556 259.057,49.395 259.090,46.912 260.416 C 45.492 261.175,43.915 261.741,43.408 261.675 C 42.900 261.608,41.341 262.037,39.943 262.627 C 36.862 263.926,33.156 263.642,26.000 261.558 C 15.245 258.424,14.391 260.678,23.224 268.882 C 27.989 273.307,27.888 273.078,26.400 276.128 C 25.740 277.481,25.200 278.811,25.200 279.084 C 25.200 280.959,23.311 280.921,11.753 278.813 C 5.682 277.706,0.554 276.800,0.358 276.800 C 0.152 276.800,0.004 284.690,0.009 295.300 L 0.019 313.800 4.155 315.531 C 6.430 316.483,9.260 317.877,10.445 318.629 C 16.697 322.595,33.112 329.612,45.000 333.400 C 48.960 334.662,54.090 336.377,56.400 337.210 C 62.720 339.492,66.615 340.690,70.600 341.578 C 72.580 342.019,75.501 342.916,77.092 343.570 C 79.693 344.640,82.129 345.240,90.343 346.834 C 92.371 347.228,93.160 347.610,94.243 348.725 C 96.437 350.985,96.701 350.886,88.200 350.991 C 83.409 351.051,83.390 351.055,78.000 353.170 C 75.030 354.335,71.430 355.726,70.000 356.261 C 61.804 359.329,41.670 371.299,29.449 380.371 C 27.566 381.769,20.370 387.909,10.663 396.400 L 6.776 399.800 138.830 399.901 L 270.884 400.001 271.674 398.997 C 272.535 397.902,273.200 398.001,273.200 399.224 C 273.200 399.986,273.807 400.000,306.787 400.000 C 338.604 400.000,340.362 399.963,340.125 399.300 C 339.987 398.915,338.950 397.430,337.819 396.000 C 333.991 391.158,332.800 388.687,332.800 385.585 C 332.800 383.760,330.744 379.238,328.015 375.060 C 324.500 369.678,324.757 368.309,329.211 368.682 C 332.426 368.952,333.166 368.604,335.952 365.511 C 336.916 364.442,338.219 363.301,338.848 362.975 C 339.477 362.650,340.875 361.623,341.956 360.692 C 343.036 359.761,345.368 358.125,347.139 357.055 C 353.878 352.982,354.563 347.521,349.226 340.400 C 348.649 339.630,347.857 338.497,347.467 337.882 C 347.077 337.267,346.342 336.606,345.834 336.413 C 345.325 336.219,344.797 335.769,344.660 335.412 C 344.523 335.054,343.868 334.573,343.205 334.342 C 342.542 334.111,342.000 333.759,342.000 333.561 C 342.000 333.362,341.699 333.200,341.331 333.200 C 340.964 333.200,340.334 332.902,339.931 332.538 C 339.166 331.845,338.886 332.326,339.626 333.066 C 340.395 333.835,339.913 336.973,339.000 337.135 C 338.560 337.214,337.720 337.730,337.133 338.283 C 336.545 338.835,335.870 339.167,335.633 339.020 C 335.038 338.653,335.062 331.898,335.660 331.300 C 335.913 331.047,336.138 330.246,336.160 329.520 C 336.187 328.613,336.375 328.237,336.758 328.319 C 337.215 328.417,337.276 327.839,337.092 325.157 C 336.968 323.352,337.032 321.441,337.234 320.910 C 337.436 320.379,337.763 318.503,337.960 316.742 C 338.376 313.018,338.867 312.315,342.351 310.458 C 345.402 308.832,346.186 309.205,347.274 312.800 C 349.305 319.508,350.399 319.913,353.000 314.919 C 355.012 311.056,355.413 310.798,357.888 311.766 C 361.180 313.054,362.089 313.019,365.491 311.472 C 367.517 310.551,369.469 309.982,371.095 309.836 C 374.035 309.574,379.448 307.024,382.501 304.464 C 383.547 303.587,385.670 302.372,387.220 301.764 C 388.959 301.082,390.881 299.920,392.246 298.725 C 393.462 297.662,395.029 296.496,395.728 296.134 C 396.428 295.772,397.672 294.919,398.493 294.238 L 399.986 293.000 399.993 281.700 C 399.998 274.194,399.861 270.400,399.587 270.400 C 398.751 270.400,396.210 271.653,395.500 272.415 C 394.461 273.530,393.431 273.389,392.236 271.969 C 391.019 270.523,391.036 270.669,391.796 268.164 C 394.312 259.867,386.397 256.525,375.686 261.361 C 373.933 262.153,371.943 262.800,371.262 262.800 C 370.582 262.800,368.646 263.250,366.961 263.800 C 361.389 265.619,360.100 264.862,364.372 262.280 C 366.097 261.237,366.621 260.651,367.201 259.112 C 367.593 258.074,368.473 256.518,369.157 255.655 C 369.841 254.791,370.400 253.886,370.400 253.642 C 370.400 253.399,370.550 253.200,370.732 253.200 C 371.158 253.200,371.672 252.124,373.028 248.400 C 374.166 245.275,377.592 241.370,383.478 236.486 C 384.614 235.544,386.045 233.980,386.658 233.011 C 387.271 232.043,388.498 230.844,389.386 230.346 C 390.274 229.849,392.496 227.951,394.324 226.129 C 396.152 224.308,398.177 222.504,398.824 222.122 C 400.355 221.218,400.597 218.986,399.100 219.572 C 393.089 221.924,384.661 226.904,377.432 232.376 C 374.600 234.520,373.768 234.745,372.062 233.831 C 371.478 233.519,370.687 233.165,370.304 233.046 C 369.227 232.709,370.076 230.986,372.593 228.400 C 378.548 222.282,381.041 218.948,380.610 217.680 C 380.209 216.500,378.456 214.783,377.055 214.197 C 375.941 213.732,375.737 213.463,375.890 212.662 L 376.076 211.690 372.171 211.832 C 370.023 211.910,368.080 212.160,367.853 212.387 C 367.400 212.840,365.234 212.942,364.233 212.557 C 362.480 211.885,364.096 210.733,367.800 210.015 C 369.930 209.602,373.870 208.517,381.000 206.382 C 383.420 205.657,388.640 203.770,392.600 202.189 L 399.800 199.315 399.904 181.539 L 400.008 163.762 397.504 163.118 C 391.164 161.488,386.460 160.059,385.571 159.492 C 384.549 158.841,382.292 158.336,377.000 157.576 C 375.240 157.323,373.292 156.853,372.671 156.533 C 372.042 156.208,371.067 156.049,370.471 156.174 C 367.037 156.894,367.778 152.229,374.088 133.400 C 376.935 124.902,386.697 104.028,389.801 99.800 C 393.032 95.397,392.823 91.589,389.217 89.167 C 381.776 84.170,370.055 90.707,349.808 111.147 C 343.414 117.602,342.026 118.666,342.826 116.500 C 344.282 112.558,349.581 103.776,353.498 98.811 C 359.083 91.731,360.196 87.992,359.868 77.400 C 359.658 70.624,358.622 63.187,357.416 59.800 C 356.759 57.954,352.906 45.630,351.601 41.200 C 351.115 39.550,350.266 36.670,349.714 34.800 C 345.863 21.746,342.000 17.172,337.079 19.840 M336.864 53.874 C 336.838 63.297,336.043 77.198,334.763 90.600 C 333.643 102.318,332.996 107.315,331.137 118.600 C 330.703 121.240,330.015 126.169,329.610 129.552 C 329.014 134.528,328.721 135.857,328.077 136.501 C 326.833 137.744,326.501 137.092,326.712 133.818 L 326.905 130.809 325.086 129.105 C 322.034 126.243,321.891 118.396,324.759 111.074 C 325.002 110.455,325.200 109.240,325.200 108.374 C 325.200 107.490,325.628 105.968,326.178 104.900 C 327.887 101.579,329.026 94.943,329.970 82.800 C 330.184 80.050,330.533 76.990,330.744 76.000 C 331.202 73.860,331.849 70.564,332.354 67.800 C 332.554 66.700,333.075 64.090,333.511 62.000 C 333.946 59.910,334.509 56.850,334.762 55.200 C 335.239 52.090,336.450 47.516,336.724 47.791 C 336.810 47.877,336.873 50.614,336.864 53.874 M252.278 66.940 C 252.157 67.256,252.211 68.480,252.399 69.658 C 253.803 78.473,254.285 80.868,255.688 86.000 C 258.888 97.704,261.133 101.061,258.498 90.200 C 258.070 88.440,257.499 85.740,257.227 84.200 C 256.956 82.660,256.483 80.590,256.177 79.600 C 255.871 78.610,255.356 76.360,255.034 74.600 C 253.958 68.729,252.813 65.546,252.278 66.940 M343.944 76.000 C 343.765 78.750,343.452 82.620,343.250 84.600 C 343.047 86.580,343.000 88.916,343.146 89.792 C 343.292 90.668,343.258 92.468,343.072 93.792 C 342.885 95.116,342.648 96.795,342.544 97.522 C 342.343 98.932,341.018 100.582,340.397 100.198 C 339.496 99.642,340.966 78.149,342.255 73.021 C 342.589 71.689,342.970 70.150,343.100 69.600 L 343.336 68.600 343.803 69.800 C 344.135 70.655,344.176 72.437,343.944 76.000 M356.330 149.989 C 356.442 151.137,355.203 158.660,354.516 161.000 L 354.282 161.800 353.969 161.000 C 353.271 159.214,353.567 152.957,354.461 150.622 C 355.401 148.164,356.127 147.918,356.330 149.989 M356.708 194.621 C 357.188 195.480,356.819 197.618,356.145 197.877 C 354.740 198.416,353.407 195.423,354.648 194.516 C 355.586 193.829,356.285 193.865,356.708 194.621 M368.079 215.220 C 369.442 217.055,368.515 217.859,363.792 218.937 C 358.639 220.113,358.338 217.272,363.372 214.960 C 365.855 213.819,367.088 213.887,368.079 215.220 M255.593 232.886 C 256.975 236.245,256.940 237.117,255.372 238.351 C 253.486 239.834,252.932 239.162,252.701 235.113 C 252.302 228.121,253.311 227.343,255.593 232.886 M367.296 232.019 C 368.069 232.974,368.290 236.574,367.601 236.999 C 367.382 237.135,366.821 238.134,366.353 239.219 C 364.774 242.890,360.288 245.789,357.784 244.756 C 357.133 244.487,356.510 244.249,356.400 244.227 C 355.487 244.046,355.199 243.489,355.794 243.054 C 356.505 242.534,356.682 241.440,356.262 240.164 C 356.067 239.573,356.311 238.903,357.093 237.884 C 357.702 237.090,358.650 235.685,359.200 234.762 C 361.400 231.069,365.423 229.706,367.296 232.019 M258.604 240.176 C 260.589 241.005,263.860 244.199,264.136 245.578 C 264.538 247.589,266.860 247.704,268.883 245.812 C 271.331 243.522,275.526 245.036,280.376 249.962 C 284.772 254.426,284.874 254.705,283.067 257.328 C 281.140 260.127,281.187 260.423,283.968 263.035 C 288.744 267.518,288.800 269.246,284.300 273.256 C 280.578 276.573,279.600 277.572,279.600 278.061 C 279.600 278.735,278.580 278.380,278.042 277.518 C 277.655 276.899,277.625 276.592,277.940 276.487 C 279.238 276.054,279.928 274.885,280.158 272.732 L 280.399 270.464 278.257 268.732 C 277.079 267.779,274.842 265.890,273.286 264.534 C 271.731 263.178,269.635 261.586,268.629 260.996 C 267.623 260.406,266.800 259.755,266.800 259.549 C 266.800 259.342,266.158 258.794,265.374 258.332 C 264.049 257.550,263.966 257.387,264.196 256.021 C 264.555 253.898,259.035 249.091,253.245 246.484 C 251.512 245.704,250.000 244.443,250.000 243.778 C 250.000 243.073,252.442 240.800,253.199 240.800 C 253.556 240.800,254.196 240.536,254.624 240.213 C 255.616 239.462,256.868 239.450,258.604 240.176 M354.482 243.906 C 354.242 243.986,354.145 244.311,354.266 244.629 C 354.392 244.957,353.877 245.882,353.073 246.772 C 352.120 247.827,351.726 248.595,351.865 249.128 C 352.165 250.276,350.923 251.922,349.039 252.874 C 348.138 253.329,345.772 255.367,343.781 257.402 C 339.885 261.386,339.792 261.500,336.814 266.000 C 333.306 271.300,332.640 271.818,332.302 269.513 C 332.151 268.488,332.343 267.996,333.243 267.096 C 334.496 265.842,334.678 265.546,337.080 260.847 C 339.483 256.145,340.346 254.846,342.140 253.231 C 343.015 252.444,344.341 250.849,345.087 249.686 C 346.070 248.152,346.760 247.508,347.599 247.340 C 348.235 247.213,349.461 246.355,350.325 245.434 C 351.631 244.040,352.147 243.760,353.407 243.760 C 354.239 243.760,354.723 243.826,354.482 243.906 M231.092 247.769 C 231.921 248.083,233.421 248.449,234.424 248.583 C 236.894 248.913,246.717 253.858,247.756 255.295 C 248.945 256.938,248.966 262.148,247.784 262.317 C 246.234 262.539,238.336 259.150,231.637 255.390 C 230.667 254.845,229.419 254.400,228.863 254.400 C 226.583 254.400,225.561 252.515,227.000 250.962 C 227.550 250.369,228.000 249.495,228.000 249.022 C 228.000 247.282,228.870 246.930,231.092 247.769 M213.104 250.745 C 214.863 252.259,216.887 254.626,218.814 257.422 L 221.800 261.755 225.785 263.487 C 230.150 265.385,231.417 266.329,232.261 268.309 C 232.896 269.801,232.446 271.162,231.286 271.255 C 227.018 271.600,222.148 270.698,218.575 268.900 C 217.709 268.465,216.318 267.984,215.484 267.833 C 211.559 267.120,208.922 265.135,210.201 263.856 C 211.642 262.415,210.247 259.489,206.235 255.537 C 201.325 250.701,201.636 248.400,207.199 248.400 L 210.379 248.400 213.104 250.745 M267.407 251.050 C 266.065 252.393,266.767 254.054,268.945 254.686 C 272.368 255.679,273.008 254.514,270.447 251.953 C 268.715 250.221,268.346 250.111,267.407 251.050 M267.078 257.056 C 266.606 257.528,267.192 257.927,268.034 257.707 C 268.668 257.541,268.740 257.408,268.334 257.151 C 267.687 256.741,267.413 256.720,267.078 257.056 M239.748 261.942 C 241.171 263.515,239.513 264.776,237.364 263.756 C 236.103 263.158,235.608 262.125,236.267 261.467 C 236.822 260.911,239.095 261.221,239.748 261.942 M57.200 263.722 C 57.200 264.398,54.833 266.643,53.800 266.947 C 52.485 267.333,51.644 266.585,52.467 265.762 C 54.183 264.046,57.200 262.745,57.200 263.722 M265.686 264.590 C 266.409 264.914,267.757 265.369,268.683 265.601 C 269.609 265.832,270.481 266.207,270.621 266.434 C 271.548 267.934,268.236 271.278,266.664 270.428 C 266.189 270.171,265.289 269.682,264.663 269.341 C 263.749 268.842,263.202 268.804,261.863 269.144 C 259.302 269.796,258.841 269.081,260.154 266.490 C 260.716 265.382,261.406 264.382,261.688 264.269 C 262.681 263.870,264.388 264.007,265.686 264.590 M256.181 265.170 C 256.307 265.374,256.217 265.963,255.981 266.481 C 255.568 267.388,257.093 272.159,258.533 274.465 C 258.863 274.993,258.861 275.299,258.525 275.635 C 257.857 276.303,257.200 275.714,257.200 274.450 C 257.200 272.216,252.535 270.990,250.162 272.600 C 249.351 273.150,248.353 273.600,247.944 273.600 C 247.351 273.600,247.200 273.905,247.199 275.100 C 247.195 278.465,245.154 279.964,242.647 278.443 C 241.961 278.027,240.823 277.564,240.118 277.415 C 238.813 277.139,238.644 276.868,238.242 274.400 C 237.987 272.840,238.507 271.459,238.932 272.566 C 239.318 273.572,240.325 273.305,240.990 272.020 C 241.752 270.546,241.754 269.986,241.002 268.546 C 240.106 266.829,241.811 266.734,244.272 268.365 C 247.780 270.688,251.000 270.273,252.607 267.291 C 253.585 265.476,255.623 264.267,256.181 265.170 M300.993 268.300 C 302.132 269.345,304.004 270.983,305.153 271.940 C 307.214 273.657,309.516 276.618,309.107 277.026 C 308.991 277.142,307.491 276.868,305.773 276.418 C 304.055 275.968,301.637 275.600,300.399 275.600 L 298.149 275.600 297.075 272.849 C 295.774 269.519,295.758 269.095,296.875 267.584 C 298.054 265.989,298.573 266.079,300.993 268.300 M351.330 267.063 C 351.741 267.474,350.786 268.400,349.951 268.400 C 349.113 268.400,348.921 267.379,349.700 267.065 C 350.439 266.767,351.033 266.766,351.330 267.063 M61.412 268.721 C 61.143 268.990,60.000 267.992,60.000 267.489 C 60.000 267.262,60.361 267.403,60.802 267.802 C 61.244 268.202,61.518 268.615,61.412 268.721 M213.680 271.716 C 214.173 272.491,214.068 272.725,212.817 273.650 C 212.167 274.131,211.456 275.037,211.238 275.662 C 210.782 276.970,208.686 277.323,208.243 276.167 C 207.620 274.545,208.812 270.751,210.089 270.289 C 210.729 270.057,213.267 271.066,213.680 271.716 M64.659 271.905 C 64.761 272.293,65.377 272.917,66.029 273.291 C 68.022 274.434,68.173 276.172,66.202 275.274 C 65.651 275.023,65.200 274.481,65.200 274.071 C 65.200 273.660,64.840 272.998,64.400 272.600 C 63.518 271.802,63.362 271.200,64.037 271.200 C 64.278 271.200,64.558 271.517,64.659 271.905 M331.424 272.838 C 331.821 273.481,330.515 274.675,329.990 274.150 C 329.761 273.921,329.689 273.434,329.830 273.067 C 330.120 272.310,331.018 272.182,331.424 272.838 M38.384 279.316 C 38.970 279.866,40.162 280.391,41.200 280.555 C 43.456 280.913,44.800 281.771,44.800 282.855 C 44.800 283.753,44.908 283.752,40.881 282.875 C 39.935 282.669,38.930 282.184,38.647 281.797 C 38.196 281.180,37.952 281.154,36.655 281.582 C 35.559 281.944,34.853 281.957,33.928 281.635 C 33.242 281.396,32.032 281.197,31.240 281.194 C 28.886 281.184,28.587 280.749,29.755 279.029 C 30.310 278.210,30.872 277.205,31.001 276.795 C 31.490 275.258,35.535 276.639,38.384 279.316 M291.644 280.415 C 296.201 283.959,298.800 286.792,298.800 288.215 C 298.800 289.078,297.892 290.384,297.271 290.413 C 295.631 290.490,295.494 291.646,296.953 293.100 C 300.823 296.958,306.400 303.425,306.400 304.055 C 306.400 304.440,305.770 306.138,305.000 307.828 C 304.230 309.517,303.600 311.324,303.600 311.842 C 303.600 313.460,299.129 313.984,297.545 312.551 C 296.149 311.289,295.120 308.877,295.411 307.552 C 295.818 305.697,291.719 301.600,289.455 301.600 C 288.671 301.600,290.209 304.833,291.574 306.054 C 293.610 307.875,293.601 308.131,291.465 309.383 C 289.372 310.609,288.747 310.646,287.800 309.600 C 286.740 308.429,285.386 308.568,284.875 309.900 C 283.704 312.956,283.707 312.963,287.200 314.746 C 295.172 318.814,295.346 327.588,287.388 324.210 C 281.141 321.559,276.301 320.524,274.600 321.477 C 273.857 321.892,272.028 322.239,269.800 322.387 C 266.572 322.601,265.983 322.768,264.100 324.006 C 261.193 325.917,261.267 326.773,264.704 331.064 L 266.038 332.728 265.130 333.364 C 264.631 333.714,263.881 334.000,263.464 334.000 C 262.549 334.000,259.435 337.009,259.777 337.562 C 259.910 337.778,262.579 339.194,265.709 340.710 C 271.699 343.611,275.103 346.344,274.544 347.803 C 273.852 349.606,268.628 350.995,266.953 349.822 C 265.178 348.579,257.342 347.031,255.547 347.569 C 251.588 348.755,250.786 353.110,253.906 356.476 C 255.724 358.437,253.897 359.595,251.192 358.196 C 250.216 357.691,250.078 357.444,250.358 356.696 C 250.542 356.203,250.550 354.810,250.375 353.600 C 249.910 350.372,249.926 350.207,250.800 349.200 C 252.025 347.788,251.810 346.340,250.090 344.401 C 247.579 341.571,245.187 342.302,243.098 346.538 C 241.941 348.884,241.432 349.158,239.526 348.462 C 237.755 347.815,236.016 348.662,235.164 350.588 C 233.896 353.454,232.400 353.383,232.400 350.456 C 232.400 347.526,234.640 344.600,236.882 344.600 C 238.366 344.600,238.641 344.432,239.772 342.832 C 240.460 341.859,241.557 340.869,242.211 340.631 C 243.642 340.110,246.399 337.571,246.402 336.772 C 246.419 332.446,249.563 329.949,252.868 331.635 C 257.485 333.990,261.450 332.981,260.375 329.725 C 259.960 328.468,259.996 328.070,260.625 326.901 C 261.444 325.381,261.244 324.767,259.509 323.472 C 257.176 321.730,251.145 323.143,250.007 325.698 C 249.479 326.885,249.270 327.025,248.400 326.771 C 247.850 326.611,246.455 326.462,245.300 326.440 C 242.917 326.395,241.463 325.366,241.675 323.875 C 241.806 322.956,243.900 322.723,247.600 323.214 L 249.000 323.400 249.202 321.131 C 249.454 318.309,249.610 318.156,251.631 318.762 C 257.100 320.401,260.000 319.773,260.000 316.951 C 260.000 314.672,260.340 314.743,261.899 317.349 C 262.987 319.169,263.438 319.563,264.840 319.919 L 266.497 320.339 268.683 318.205 C 270.748 316.189,270.882 315.938,271.085 313.692 L 271.301 311.313 269.991 310.857 C 267.996 310.161,266.278 310.302,263.362 311.400 C 260.079 312.636,260.059 312.636,258.160 311.347 C 256.542 310.249,255.305 310.259,249.766 311.414 C 248.335 311.712,246.400 309.880,246.400 308.228 C 246.400 306.608,254.357 306.507,259.529 308.061 C 261.049 308.518,261.405 308.497,262.462 307.890 C 263.125 307.510,264.640 307.085,265.829 306.945 C 269.266 306.541,269.399 305.907,266.584 303.366 C 263.579 300.656,261.735 299.997,259.773 300.933 C 257.812 301.868,257.117 301.774,255.800 300.400 C 254.307 298.842,249.271 298.600,247.489 300.001 C 245.798 301.331,244.120 299.801,241.445 294.490 C 239.693 291.010,239.690 290.937,241.238 288.194 C 242.896 285.256,244.241 285.114,244.016 287.900 C 243.953 288.676,244.136 288.800,245.348 288.800 C 247.247 288.800,247.382 289.215,246.205 291.429 C 244.905 293.874,244.808 297.121,246.002 298.201 C 246.848 298.968,246.736 298.993,249.610 297.402 C 250.974 296.646,253.297 296.583,256.275 297.220 C 258.025 297.595,259.138 297.634,260.075 297.356 C 262.108 296.752,263.988 297.285,266.400 299.151 C 268.537 300.805,268.670 300.848,271.041 300.678 C 274.627 300.419,275.182 300.880,273.512 302.731 C 270.903 305.622,270.426 306.763,270.932 308.900 L 271.382 310.800 273.241 310.800 C 274.263 310.800,275.618 310.895,276.250 311.010 C 277.288 311.200,277.478 311.053,278.200 309.510 C 278.907 307.998,279.255 307.720,281.200 307.106 C 285.111 305.873,285.247 305.775,284.768 304.511 C 283.812 301.988,280.752 300.025,277.749 300.009 C 276.748 300.003,275.893 299.754,275.578 299.374 C 274.757 298.385,272.895 297.506,268.800 296.177 C 264.563 294.802,263.529 293.274,265.581 291.418 C 268.270 288.984,265.356 285.478,262.438 287.635 C 261.024 288.681,257.040 288.395,256.402 287.203 C 255.814 286.105,257.174 285.119,259.061 285.274 C 260.456 285.388,260.640 285.288,261.031 284.200 C 261.684 282.385,263.410 281.682,264.560 282.762 C 265.150 283.316,265.985 283.602,267.026 283.606 C 269.054 283.614,269.760 284.065,269.421 285.135 C 269.011 286.424,269.855 287.530,271.607 288.002 C 272.483 288.238,273.200 288.604,273.200 288.815 C 273.200 289.506,277.477 289.266,278.208 288.535 C 279.054 287.689,278.750 285.968,277.391 283.915 C 275.706 281.369,277.445 278.817,280.889 278.783 C 281.830 278.774,283.230 278.422,284.000 278.000 C 286.400 276.686,287.156 276.925,291.644 280.415 M311.794 278.794 C 312.433 279.499,312.462 279.841,312.056 281.861 C 311.301 285.621,311.467 289.377,312.475 291.316 C 315.238 296.634,310.878 304.631,307.138 301.104 C 304.468 298.587,304.278 297.180,306.518 296.538 C 308.623 295.934,308.743 294.696,307.049 291.078 C 304.720 286.104,303.909 285.052,301.437 283.801 C 298.878 282.506,298.386 281.411,300.546 281.816 C 301.366 281.970,302.620 281.821,303.760 281.434 C 304.787 281.085,306.207 280.794,306.914 280.787 C 308.426 280.772,309.373 280.146,309.769 278.898 C 310.121 277.789,310.851 277.751,311.794 278.794 M260.172 279.645 C 259.768 280.298,259.200 280.009,259.200 279.151 C 259.200 278.445,259.300 278.385,259.796 278.796 C 260.123 279.068,260.293 279.450,260.172 279.645 M74.780 280.615 C 76.399 281.613,78.821 283.295,80.162 284.352 C 81.503 285.410,84.266 287.389,86.302 288.749 C 88.585 290.275,90.407 291.832,91.055 292.812 C 91.633 293.685,92.292 294.400,92.520 294.400 C 92.747 294.400,92.834 294.500,92.712 294.622 C 92.590 294.743,90.625 294.191,88.345 293.394 C 84.993 292.222,83.282 291.876,79.400 291.585 C 72.228 291.048,70.717 290.786,69.400 289.852 C 68.566 289.260,67.529 288.982,66.000 288.940 C 53.903 288.610,50.001 284.772,60.317 283.351 C 69.923 282.028,71.200 281.587,71.200 279.600 C 71.200 278.489,71.445 278.559,74.780 280.615 M193.811 279.349 C 194.245 279.651,195.230 280.031,196.000 280.194 C 198.947 280.816,210.170 285.758,211.700 287.107 C 212.512 287.822,212.638 290.105,211.900 290.715 C 210.446 291.917,208.568 291.701,202.142 289.594 C 191.889 286.232,189.462 284.586,190.629 281.792 C 190.957 281.007,191.119 280.193,190.989 279.982 C 190.292 278.854,192.415 278.378,193.811 279.349 M233.950 279.050 L 235.199 279.300 233.470 280.396 C 231.497 281.648,230.599 283.374,230.991 285.160 C 231.296 286.547,228.333 290.201,226.539 290.651 C 225.406 290.935,222.925 288.969,221.995 287.049 C 221.662 286.362,221.064 285.317,220.666 284.727 C 219.471 282.953,222.099 280.625,223.983 281.790 C 224.223 281.938,225.539 281.435,226.909 280.672 C 230.218 278.831,231.444 278.549,233.950 279.050 M271.994 279.300 C 271.991 279.575,271.851 280.015,271.683 280.279 C 271.247 280.966,270.228 280.226,270.529 279.440 C 270.818 278.687,272.003 278.573,271.994 279.300 M283.521 288.500 C 283.373 291.062,283.915 292.157,286.239 294.000 C 289.276 296.408,290.837 295.750,289.795 292.500 C 289.560 291.765,289.657 291.600,290.330 291.600 C 292.477 291.600,291.116 289.786,287.255 287.503 C 284.342 285.781,283.667 285.961,283.521 288.500 M253.466 287.333 C 253.594 287.461,253.051 287.875,252.258 288.253 C 250.810 288.943,248.795 288.180,249.415 287.175 C 249.631 286.826,253.094 286.960,253.466 287.333 M355.874 289.270 C 357.320 290.628,356.408 293.600,354.544 293.600 C 353.705 293.600,351.205 296.015,350.637 297.374 C 349.945 299.029,348.919 300.021,348.188 299.740 C 347.188 299.356,347.534 297.460,349.059 294.976 C 349.862 293.669,350.851 291.936,351.257 291.124 C 352.583 288.475,354.296 287.787,355.874 289.270 M232.329 295.355 C 232.496 296.771,231.713 297.792,230.947 297.156 C 230.290 296.611,230.251 295.826,230.827 294.749 C 231.396 293.687,232.169 293.999,232.329 295.355 M207.390 298.380 C 208.463 300.456,208.242 300.859,206.104 300.722 C 203.941 300.583,203.492 299.835,204.576 298.180 C 205.450 296.846,206.640 296.931,207.390 298.380 M215.132 298.300 C 215.331 298.685,215.612 299.937,215.758 301.082 C 215.904 302.227,216.281 303.895,216.596 304.789 C 217.604 307.645,216.821 308.297,214.661 306.400 C 212.038 304.097,208.800 306.357,208.800 310.491 C 208.800 312.735,207.802 312.940,206.155 311.034 C 204.150 308.715,203.825 307.407,205.055 306.601 C 207.212 305.188,209.247 302.643,209.097 301.549 C 208.943 300.426,209.131 300.252,212.344 298.544 C 214.468 297.414,214.667 297.397,215.132 298.300 M228.913 300.100 C 229.621 300.632,230.917 303.887,230.615 304.376 C 229.830 305.646,227.087 306.934,226.596 306.263 C 225.569 304.858,226.497 299.600,227.773 299.600 C 228.034 299.600,228.547 299.825,228.913 300.100 M196.153 305.700 C 197.390 307.649,197.386 310.598,196.145 311.502 C 194.722 312.538,195.248 313.308,198.305 314.662 C 205.036 317.643,201.235 321.604,193.600 319.565 C 192.830 319.359,190.516 319.012,188.457 318.794 C 184.333 318.357,182.766 317.770,180.647 315.869 C 178.721 314.140,178.554 312.963,180.260 313.129 C 182.130 313.311,182.262 312.535,180.630 310.951 C 177.919 308.317,179.390 308.160,185.446 310.437 C 192.948 313.259,195.349 313.029,193.628 309.655 C 192.123 306.705,194.464 303.039,196.153 305.700 M236.394 306.976 C 236.382 308.579,235.841 308.942,234.248 308.416 C 232.717 307.910,232.398 307.069,233.300 305.910 C 234.454 304.427,236.408 305.101,236.394 306.976 M245.916 314.054 C 246.103 315.034,244.048 315.616,242.012 315.158 C 240.019 314.710,239.520 314.942,239.828 316.171 C 240.226 317.753,239.296 320.361,238.241 320.625 C 233.816 321.736,233.202 319.465,236.921 315.746 L 239.502 313.165 242.647 313.282 C 245.179 313.377,245.816 313.527,245.916 314.054 M232.400 316.025 C 232.400 316.715,232.187 316.830,231.103 316.725 C 229.154 316.537,229.038 315.200,230.971 315.200 C 232.148 315.200,232.400 315.346,232.400 316.025 M273.900 315.627 C 272.987 316.166,273.008 317.069,273.945 317.570 C 274.917 318.091,276.142 317.235,275.939 316.178 C 275.766 315.279,274.891 315.042,273.900 315.627 M305.120 317.680 C 305.889 318.449,305.306 321.600,304.395 321.600 C 303.871 321.600,301.474 319.799,301.038 319.077 C 300.180 317.659,303.845 316.405,305.120 317.680 M229.789 322.364 C 229.922 322.785,230.485 323.426,231.040 323.789 C 233.494 325.398,231.031 328.155,227.961 327.236 C 225.254 326.424,224.329 324.058,226.387 323.205 C 227.039 322.935,227.781 322.463,228.036 322.157 C 228.689 321.370,229.504 321.466,229.789 322.364 M275.497 325.900 C 276.217 326.372,277.355 326.600,278.983 326.600 C 281.811 326.600,282.357 327.475,280.719 329.380 L 279.794 330.455 277.805 329.602 C 276.711 329.133,275.325 328.176,274.724 327.475 C 272.941 325.393,273.374 324.510,275.497 325.900 M188.245 328.207 C 188.971 328.761,190.428 329.385,191.483 329.593 C 192.537 329.802,194.480 330.425,195.800 330.977 C 197.120 331.529,198.481 331.985,198.824 331.991 C 199.843 332.006,204.463 333.933,205.302 334.693 C 206.247 335.548,206.047 338.284,204.982 339.063 C 201.946 341.282,191.855 338.980,186.301 334.800 C 184.100 333.143,183.687 332.407,184.798 332.116 C 185.705 331.879,185.942 329.702,185.147 328.907 C 183.555 327.315,186.271 326.701,188.245 328.207 M305.387 329.444 C 305.741 329.799,306.474 330.962,307.015 332.030 C 308.268 334.502,309.186 335.035,310.777 334.212 C 311.428 333.875,312.606 333.600,313.396 333.600 C 314.186 333.600,315.545 333.236,316.416 332.792 C 318.316 331.823,318.374 332.149,316.800 334.938 C 315.793 336.723,315.600 337.502,315.600 339.785 L 315.600 342.505 314.167 342.272 C 313.379 342.144,311.933 341.652,310.953 341.177 C 306.970 339.249,303.256 343.549,302.317 351.178 C 301.879 354.734,301.881 354.743,302.939 356.001 C 303.523 356.694,304.092 357.743,304.204 358.331 C 304.316 358.919,304.772 360.529,305.216 361.909 C 305.908 364.060,305.986 365.014,305.755 368.578 C 305.430 373.600,305.272 373.954,303.623 373.331 C 302.542 372.923,302.226 372.999,300.705 374.030 C 298.555 375.487,298.523 375.484,297.719 373.800 C 296.880 372.040,296.828 372.049,295.514 374.215 C 293.823 377.002,292.981 377.190,289.505 375.562 C 286.630 374.214,286.550 374.201,281.700 374.321 L 276.800 374.441 276.800 373.049 C 276.800 371.259,277.684 370.400,279.529 370.399 C 284.249 370.397,286.640 364.875,283.467 361.301 C 281.595 359.192,279.488 355.152,279.996 354.644 C 280.512 354.128,283.680 353.699,290.200 353.260 C 298.705 352.689,299.920 351.784,297.800 347.600 C 296.430 344.896,296.510 344.496,298.600 343.600 C 301.077 342.538,301.196 340.822,298.873 339.637 C 298.034 339.209,297.099 338.560,296.797 338.196 C 296.494 337.832,294.723 336.792,292.860 335.886 C 289.276 334.143,285.715 331.025,286.386 330.217 C 286.610 329.947,289.575 329.751,294.422 329.685 C 298.647 329.629,302.395 329.412,302.752 329.203 C 303.721 328.637,304.666 328.723,305.387 329.444 M240.571 330.229 C 241.448 331.105,241.400 333.546,240.500 333.901 C 239.075 334.462,235.521 334.233,235.084 333.551 C 233.839 331.607,238.891 328.548,240.571 330.229 M274.334 331.997 C 274.919 332.788,275.805 333.341,276.950 333.629 C 277.902 333.869,279.923 334.867,281.440 335.847 C 282.958 336.827,284.965 337.824,285.900 338.062 C 287.491 338.467,290.000 340.632,290.000 341.600 C 290.000 343.060,286.045 346.000,284.081 346.000 C 282.746 346.000,277.045 343.316,274.400 341.443 C 273.410 340.741,272.091 339.912,271.469 339.600 C 268.455 338.086,269.093 335.858,272.432 336.235 C 275.418 336.573,275.592 335.912,273.000 334.085 C 271.086 332.736,270.762 331.895,271.900 331.232 C 272.998 330.593,273.386 330.715,274.334 331.997 M231.763 334.545 C 231.902 335.285,232.360 336.202,232.781 336.583 C 233.982 337.670,233.283 338.891,231.157 339.419 C 226.850 340.489,225.474 336.835,229.200 334.221 C 231.073 332.908,231.465 332.957,231.763 334.545 M224.214 334.646 C 225.915 335.761,225.316 337.199,222.681 338.323 C 221.015 339.033,220.800 338.931,220.800 337.426 C 220.800 334.271,222.067 333.239,224.214 334.646 M24.400 339.781 C 24.400 340.911,25.344 342.431,25.971 342.312 C 26.759 342.161,27.021 340.548,26.382 339.778 C 25.760 339.028,24.400 339.031,24.400 339.781 M217.465 341.426 C 217.800 342.299,215.257 344.866,214.206 344.716 C 212.740 344.505,212.985 342.975,214.669 341.831 C 216.414 340.645,217.126 340.542,217.465 341.426 M228.010 347.412 C 228.856 348.432,226.598 351.200,224.919 351.200 C 224.353 351.200,223.154 348.186,223.431 347.463 C 223.981 346.030,226.837 345.999,228.010 347.412 M180.400 347.221 C 183.370 347.462,187.690 347.780,190.000 347.929 L 194.200 348.200 194.076 349.262 C 193.943 350.406,196.015 352.400,197.338 352.400 C 198.473 352.400,197.585 349.128,196.336 348.712 C 195.616 348.472,196.260 347.200,197.103 347.200 C 197.503 347.200,198.537 347.560,199.400 348.000 C 200.263 348.440,201.477 348.800,202.098 348.800 C 202.719 348.800,204.436 349.437,205.914 350.215 C 207.391 350.993,210.130 352.165,212.000 352.818 C 219.327 355.377,219.839 356.870,214.262 359.423 L 211.945 360.484 209.215 359.776 C 205.978 358.936,204.802 359.246,203.095 361.386 C 201.613 363.243,201.973 363.998,204.343 364.006 C 206.188 364.012,206.607 364.174,209.232 365.899 C 209.984 366.393,210.913 366.798,211.295 366.799 C 211.678 366.799,212.981 367.467,214.193 368.283 C 216.501 369.838,216.721 370.284,216.913 373.791 L 217.000 375.381 214.800 375.684 C 211.167 376.185,205.295 374.960,204.032 373.439 C 203.052 372.258,203.005 369.733,203.953 369.225 C 205.686 368.298,204.627 366.871,201.400 365.785 C 198.166 364.696,191.286 361.336,189.668 360.054 C 188.845 359.402,187.503 358.550,186.686 358.161 C 185.869 357.771,185.200 357.331,185.200 357.184 C 185.200 355.896,183.168 354.850,180.742 354.890 C 176.895 354.952,173.865 353.646,172.365 351.280 C 170.420 348.213,171.055 346.136,173.800 346.587 C 174.460 346.696,177.430 346.981,180.400 347.221 M245.600 354.997 C 245.600 355.278,245.195 355.774,244.699 356.098 C 244.204 356.423,243.457 357.659,243.040 358.844 C 241.766 362.466,240.987 362.719,239.583 359.967 C 238.505 357.853,238.562 357.660,240.527 356.791 C 241.477 356.371,242.739 355.578,243.332 355.028 C 244.406 354.032,245.600 354.016,245.600 354.997 M273.480 355.796 C 274.756 356.124,275.980 356.689,276.200 357.053 C 276.420 357.416,277.545 359.164,278.700 360.937 C 281.622 365.423,281.521 365.692,276.713 366.204 L 274.026 366.490 273.195 365.081 C 271.943 362.960,271.361 362.947,269.340 364.997 C 267.255 367.112,267.667 367.017,265.397 365.913 C 262.445 364.480,262.346 361.275,265.175 358.800 C 266.055 358.030,266.957 356.905,267.178 356.300 C 267.662 354.975,269.663 354.815,273.480 355.796 M146.984 358.249 C 147.869 358.589,145.943 359.600,144.409 359.600 C 143.805 359.600,141.800 359.981,139.955 360.448 C 135.745 361.511,129.766 361.810,129.445 360.973 C 129.324 360.658,129.444 360.389,129.713 360.376 C 129.981 360.363,131.100 360.183,132.200 359.975 C 133.300 359.768,135.730 359.424,137.600 359.211 C 139.470 358.998,141.720 358.659,142.600 358.458 C 144.601 358.000,146.144 357.927,146.984 358.249 M233.338 359.017 C 233.076 359.700,232.339 359.616,232.092 358.875 C 232.004 358.611,232.298 358.400,232.754 358.400 C 233.329 358.400,233.504 358.585,233.338 359.017 M245.988 367.550 C 247.465 368.212,248.381 368.276,253.768 368.095 L 259.873 367.889 261.047 369.645 C 261.799 370.768,262.985 371.811,264.343 372.543 C 266.352 373.625,267.765 373.931,274.081 374.650 C 278.382 375.140,281.721 379.347,281.771 384.339 L 281.800 387.277 279.615 389.257 L 277.429 391.237 277.015 389.522 C 276.439 387.141,275.085 386.498,271.991 387.137 C 270.759 387.392,268.983 387.600,268.043 387.600 C 266.452 387.600,266.093 387.827,262.838 390.900 C 257.023 396.387,254.689 398.378,254.330 398.157 C 253.930 397.910,253.135 396.099,251.714 392.205 C 249.763 386.858,248.817 386.492,248.806 391.081 C 248.799 393.828,248.336 395.198,247.166 395.928 C 245.754 396.810,245.291 394.870,246.368 392.579 C 248.842 387.316,244.193 387.210,240.170 392.439 C 237.297 396.173,236.407 395.393,238.222 390.731 C 239.384 387.747,237.169 386.599,233.338 388.200 C 229.650 389.741,228.873 388.680,231.735 386.010 L 233.354 384.500 231.977 383.786 C 229.688 382.599,226.337 382.785,222.670 384.304 C 218.019 386.230,217.625 386.129,219.162 383.406 C 219.843 382.199,220.400 380.944,220.400 380.615 C 220.400 380.287,220.848 379.725,221.395 379.366 L 222.391 378.714 221.606 377.717 C 221.174 377.168,220.713 376.062,220.580 375.259 C 220.190 372.896,219.613 371.741,218.165 370.423 C 215.831 368.299,217.376 366.547,220.521 367.749 C 221.459 368.107,222.941 368.405,223.813 368.411 C 224.686 368.417,226.655 368.957,228.188 369.611 C 230.162 370.452,231.626 370.800,233.199 370.800 C 235.837 370.800,236.889 371.422,238.029 373.657 C 239.047 375.653,240.995 376.576,243.594 376.292 C 245.946 376.036,246.276 376.189,247.175 377.951 C 248.151 379.864,247.873 380.326,244.386 382.582 C 241.604 384.381,241.046 385.286,242.080 386.320 C 242.790 387.030,243.477 386.913,245.114 385.800 C 246.850 384.620,247.745 384.545,248.700 385.500 C 249.844 386.644,256.376 386.377,257.200 385.152 C 257.530 384.662,258.848 383.214,260.128 381.935 C 263.607 378.460,262.653 376.400,257.565 376.400 C 255.610 376.400,254.052 376.112,252.162 375.400 C 250.700 374.850,249.160 374.400,248.739 374.400 C 248.290 374.400,247.637 373.831,247.163 373.027 C 246.208 371.408,244.657 370.921,242.609 371.597 C 240.815 372.189,240.400 371.896,240.400 370.038 C 240.400 367.190,242.798 366.122,245.988 367.550 M224.157 373.769 C 223.790 374.725,224.743 376.000,225.827 376.000 C 227.113 376.000,227.495 374.989,226.587 373.985 C 225.756 373.068,224.470 372.953,224.157 373.769 M229.814 375.178 C 229.428 375.803,229.936 376.400,230.853 376.400 C 231.403 376.400,231.616 376.179,231.525 375.705 C 231.371 374.908,230.203 374.548,229.814 375.178 " stroke="none" fill="#e4bf05" fill-rule="evenodd"></path></g></svg>